<?xml version="1.0" encoding="utf-8"?>
<!DOCTYPE svg PUBLIC "-//W3C//DTD SVG 1.1//EN" "http://www.w3.org/Graphics/SVG/1.1/DTD/svg11.dtd">
<svg version="1.1" id="Layer_1" xmlns="http://www.w3.org/2000/svg" xmlns:xlink="http://www.w3.org/1999/xlink" 
		xmlns:dc="http://purl.org/dc/elements/1.1/"
		xmlns:cc="http://creativecommons.org/ns#"
		xmlns:rdf="http://www.w3.org/1999/02/22-rdf-syntax-ns#"		
		x="0px" y="0px"
	 width="360px" height="360px" viewBox="-10 -10 380 380" enable-background="new 0 0 360 360" xml:space="preserve" onload="StartAnimation(evt)">
	 	 
<g id="spinMe">
	<path opacity="0.15" fill="#161616" d="M133.201,30.365c3.594,2.062,6.763,4.666,9.103,7.694l51.955,67.189
		c3.789,4.901,5.306,11.048,4.162,16.866c-0.437,2.208-1.245,4.341-2.374,6.31c7.555,2.348,14.395,6.312,20.123,11.483
		c4.842-3.068,7.694-9.104,6.855-15.288l-11.4-84.756c-1.195-8.831-9.085-18.924-17.533-21.766l-51.803-17.31
		c-8.446-2.841-14.05,2.275-12.452,11.043L133.201,30.365z"/>
	<path opacity="0.23" fill="#161616" d="M64.663,73.812c4.145-0.011,8.191,0.659,11.731,2.112l78.586,32.208
		c5.731,2.35,10.118,6.917,12.037,12.526c0.735,2.155,1.085,4.412,1.065,6.678C171.918,126.472,175.903,126,180,126
		c3.762,0,7.432,0.387,10.975,1.118c2.83-5.056,2.383-11.751-1.494-16.766l-52.198-67.613c-5.45-7.051-17.305-11.804-26.043-10.042
		L57.734,43.633C49,45.395,46.71,52.64,52.477,59.434L64.663,73.812z"/>
	<path opacity="0.31" fill="#161616" d="M9.287,139.35l17.742,6.358c3.584-2.081,7.424-3.523,11.217-4.037l84.16-11.402
		c6.138-0.831,12.162,0.932,16.628,4.829c1.729,1.512,3.159,3.31,4.269,5.303c5.595-5.188,12.291-9.198,19.698-11.654
		c-0.077-5.806-3.839-11.396-9.716-13.805L74.329,82.487c-8.246-3.381-20.862-1.569-27.547,4.328L5.926,123.038
		C-0.757,128.93,0.896,136.35,9.287,139.35z"/>
	<path opacity="0.38" fill="#161616" d="M38.08,217.686l67.185-51.957c4.901-3.789,11.186-5.383,17.003-4.242
		c2.177,0.43,4.275,1.212,6.211,2.303c2.336-7.433,6.239-14.17,11.318-19.832c-3.01-4.94-9.09-7.849-15.36-7L39.785,148.36
		c-8.831,1.196-18.875,9.086-21.716,17.537L0.786,217.703c-2.841,8.443,2.288,14.05,11.055,12.453l18.544-3.367
		C32.449,223.197,35.053,220.029,38.08,217.686z"/>
	<path opacity="0.46" fill="#161616" d="M120.751,192.833c2.103-0.717,4.314-1.089,6.54-1.11c-0.836-3.774-1.291-7.695-1.291-11.724
		c0-3.813,0.4-7.531,1.152-11.12c-5.074-2.763-11.784-2.238-16.785,1.628l-67.609,52.202c-7.05,5.452-11.804,17.309-10.039,26.047
		l10.934,53.508c1.76,8.734,9.004,11.021,15.799,5.259l14.378-12.189c-0.009-4.14,0.661-8.188,2.112-11.729l32.206-78.594
		C110.497,199.275,115.143,194.752,120.751,192.833z"/>
	<path opacity="0.08" fill="#161616" d="M229.717,122.392c0.831,6.137-0.932,12.669-4.826,17.142
		c-1.408,1.61-3.063,3.026-4.896,4.184c5.106,5.625,9.034,12.337,11.415,19.741c5.744-0.199,11.249-4.034,13.635-9.854l32.451-79.13
		c3.38-8.244,1.568-20.943-4.325-27.629L236.947,5.95c-5.887-6.69-13.312-5.06-16.316,3.325l-6.352,17.74
		c2.074,3.585,3.525,7.421,4.035,11.214L229.717,122.392z"/>
	<path opacity="0.61" fill="#161616" d="M226.798,329.614c-3.587-2.066-6.76-4.673-9.103-7.697l-51.955-67.188
		c-3.791-4.898-5.364-11.154-4.226-16.976c0.432-2.185,1.219-4.282,2.318-6.218c-7.44-2.332-14.184-6.234-19.852-11.312
		c-4.942,3-7.857,9.062-7.008,15.332l11.402,84.656c1.196,8.83,9.085,18.876,17.536,21.72l51.803,17.278
		c8.443,2.851,14.048-2.285,12.457-11.05L226.798,329.614z"/>
	<path opacity="0.53" fill="#161616" d="M130.283,237.586c-0.831-6.141,0.932-12.156,4.829-16.625
		c1.51-1.727,3.308-3.148,5.298-4.254c-5.199-5.604-9.216-12.314-11.673-19.736c-5.797,0.08-11.375,3.85-13.78,9.719L82.505,285.66
		c-3.38,8.247-1.569,20.867,4.327,27.553l36.223,40.857c5.89,6.687,13.307,5.037,16.312-3.351l6.355-17.748
		c-2.077-3.584-3.521-7.428-4.037-11.222L130.283,237.586z"/>
	<path opacity="0.69" fill="#161616" d="M295.336,286.167c-4.141,0.006-8.188-0.664-11.73-2.112l-78.586-32.209
		c-5.73-2.348-10.225-6.979-12.147-12.59c-0.722-2.109-1.087-4.326-1.103-6.558C187.98,233.541,184.044,234,180,234
		c-3.8,0-7.507-0.396-11.085-1.145c-2.771,5.067-2.261,11.77,1.604,16.771l52.2,67.614c5.451,7.052,17.307,11.802,26.043,10.039
		l53.502-10.937c8.738-1.758,11.023-9.007,5.268-15.805L295.336,286.167z"/>
	<path opacity="0.76" fill="#161616" d="M350.715,220.622l-17.744-6.353c-3.582,2.073-7.425,3.521-11.218,4.035l-84.159,11.401
		c-6.137,0.832-12.66-0.933-17.135-4.826c-1.607-1.405-3.021-3.062-4.176-4.889c-5.628,5.108-12.344,9.036-19.752,11.419
		c0.197,5.738,4.021,11.238,9.837,13.624L285.5,277.49c8.246,3.379,20.945,1.568,27.631-4.326l40.896-36.225
		C360.716,231.05,359.102,223.628,350.715,220.622z"/>
	<path opacity="0.84" fill="#161616" d="M348.161,129.816l-18.545,3.372c-2.065,3.589-4.668,6.763-7.696,9.103l-67.186,51.957
		c-4.896,3.79-11.021,5.288-16.838,4.15c-2.232-0.44-4.355-1.271-6.302-2.424c-2.312,7.471-6.202,14.238-11.276,19.935
		c2.953,4.987,8.961,7.96,15.244,7.108l84.65-11.401c8.83-1.195,18.874-9.085,21.719-17.534l17.277-51.804
		C362.061,133.831,356.926,128.227,348.161,129.816z"/>
	<path opacity="0.92" fill="#161616" d="M239.343,166.982c-2.159,0.737-4.421,1.08-6.688,1.051
		c0.871,3.851,1.348,7.852,1.348,11.966c0,3.75-0.384,7.41-1.109,10.944c5.049,2.834,11.729,2.399,16.742-1.476l67.61-52.203
		c7.051-5.451,11.802-17.306,10.039-26.044L316.348,57.72c-1.755-8.739-9.008-11.027-15.803-5.269l-14.373,12.193
		c0.004,4.142-0.658,8.192-2.113,11.732l-32.205,78.591C249.505,160.698,244.951,165.056,239.343,166.982z"/>
</g> 

 <metadata>
    <rdf:RDF>
      <cc:Work
         rdf:about="">
        <dc:format>image/svg+xml</dc:format>
        <dc:type
           rdf:resource="http://purl.org/dc/dcmitype/StillImage" />
        <dc:title>Loading Wheel Throbber Transparency</dc:title>
        <dc:creator>
          <cc:Agent>
            <dc:title>CodeAndReload</dc:title>
          </cc:Agent>
        </dc:creator>
        <dc:date>05.04.2014</dc:date>
        <cc:license
           rdf:resource="http://creativecommons.org/licenses/publicdomain/" />
      </cc:Work>
      <cc:License
         rdf:about="http://creativecommons.org/licenses/publicdomain/">
        <cc:permits
           rdf:resource="http://creativecommons.org/ns#Reproduction" />
        <cc:permits
           rdf:resource="http://creativecommons.org/ns#Distribution" />
        <cc:permits
           rdf:resource="http://creativecommons.org/ns#DerivativeWorks" />
      </cc:License>
    </rdf:RDF>
  </metadata>

</svg>
